<svg width="27" height="27" viewBox="0 0 27 27" fill="none" xmlns="http://www.w3.org/2000/svg">
<path d="M21.375 21.375V11.0239L13.5 4.81163L5.625 11.0239V21.375H21.375ZM23.625 22.5C23.625 22.7984 23.5065 23.0845 23.2955 23.2955C23.0845 23.5065 22.7984 23.625 22.5 23.625H4.5C4.20163 23.625 3.91548 23.5065 3.7045 23.2955C3.49353 23.0845 3.375 22.7984 3.375 22.5V10.4783C3.37493 10.3083 3.41336 10.1406 3.4874 9.98763C3.56144 9.83468 3.66917 9.70049 3.8025 9.59513L12.8025 2.49525C13.0011 2.3383 13.2469 2.25293 13.5 2.25293C13.7531 2.25293 13.9989 2.3383 14.1975 2.49525L23.1975 9.594C23.331 9.69948 23.4388 9.83385 23.5128 9.98701C23.5869 10.1402 23.6252 10.3081 23.625 10.4783V22.5ZM7.875 13.5H10.125C10.125 14.3951 10.4806 15.2536 11.1135 15.8865C11.7464 16.5194 12.6049 16.875 13.5 16.875C14.3951 16.875 15.2536 16.5194 15.8865 15.8865C16.5194 15.2536 16.875 14.3951 16.875 13.5H19.125C19.125 14.9918 18.5324 16.4226 17.4775 17.4775C16.4226 18.5324 14.9918 19.125 13.5 19.125C12.0082 19.125 10.5774 18.5324 9.52252 17.4775C8.46763 16.4226 7.875 14.9918 7.875 13.5Z" fill="#4EBF4D"/>
</svg>
